<?xml version="1.0" standalone="no"?>
<!DOCTYPE svg PUBLIC "-//W3C//DTD SVG 20010904//EN"
 "http://www.w3.org/TR/2001/REC-SVG-20010904/DTD/svg10.dtd">
<svg version="1.0" xmlns="http://www.w3.org/2000/svg"
 width="48.000000pt" height="48.000000pt" viewBox="0 0 48.000000 48.000000"
 preserveAspectRatio="xMidYMid meet">

<g transform="translate(0.000000,48.000000) scale(0.100000,-0.100000)"
fill="#fff" stroke="none">
<path d="M117 353 c-12 -12 -8 -20 18 -31 15 -7 25 -8 25 -2 0 6 -6 10 -14 10
-8 0 -18 5 -22 11 -4 8 3 9 24 4 18 -3 33 -2 37 4 7 12 -57 16 -68 4z"/>
<path d="M300 350 c-12 -8 -10 -10 8 -10 19 0 22 -4 17 -22 l-6 -23 17 23 c9
12 23 22 30 22 8 0 14 5 14 10 0 13 -60 13 -80 0z"/>
<path d="M136 283 c-2 -10 -7 -31 -11 -48 -5 -26 -10 -30 -41 -31 -49 -1 -79
-33 -79 -84 0 -28 7 -47 23 -62 30 -31 94 -31 124 0 28 28 31 91 5 119 -9 11
-17 28 -17 39 0 13 12 2 37 -34 23 -33 40 -49 46 -43 6 6 -5 28 -32 59 -22 28
-41 53 -41 56 0 3 32 6 71 6 79 0 79 0 39 -80 -9 -19 -15 -41 -12 -49 3 -9 0
-11 -8 -6 -9 5 -11 4 -6 -3 4 -7 18 -12 31 -12 16 0 28 -9 37 -27 26 -55 104
-66 144 -22 11 13 19 36 19 60 0 50 -30 81 -81 84 -29 2 -40 8 -51 30 -8 14
-12 32 -10 38 3 9 -18 11 -79 8 -57 -2 -84 1 -84 8 0 18 -18 13 -24 -6z m172
-116 c-13 -20 -29 -36 -35 -37 -18 0 -17 3 13 63 24 47 28 50 36 31 7 -15 4
-29 -14 -57z m-202 19 c3 -8 -2 -28 -11 -45 -9 -18 -11 -31 -5 -31 6 0 18 16
27 35 13 27 19 32 30 24 21 -18 16 -83 -7 -104 -31 -28 -79 -24 -107 9 -31 36
-29 61 6 97 32 31 58 37 67 15z m327 -13 c24 -23 23 -85 -3 -108 -37 -34 -96
-20 -122 28 -10 19 -8 20 36 15 55 -7 64 3 37 38 -30 39 -28 58 7 49 15 -3 35
-14 45 -22z m-73 -35 c0 -4 -14 -8 -31 -8 -30 0 -31 5 -5 38 8 11 12 11 23 -4
7 -10 13 -21 13 -26z"/>
<path d="M217 103 c-4 -3 -7 -11 -7 -17 0 -6 5 -5 12 2 6 6 9 14 7 17 -3 3 -9
2 -12 -2z"/>
</g>
</svg>
